<svg width="12" height="16" viewBox="0 0 12 16" fill="none" xmlns="http://www.w3.org/2000/svg">
<path d="M1.152 15.4145C1.27333 15.4776 1.40955 15.5065 1.54604 15.498C1.68253 15.4896 1.81415 15.4441 1.92675 15.3665L11.6768 8.61649C11.7764 8.54747 11.8578 8.45533 11.914 8.34796C11.9703 8.24059 11.9996 8.12119 11.9996 7.99999C11.9996 7.87879 11.9703 7.75939 11.914 7.65202C11.8578 7.54465 11.7764 7.45251 11.6768 7.38349L1.92675 0.63349C1.81436 0.555081 1.68259 0.509034 1.54583 0.500369C1.40906 0.491704 1.27254 0.520754 1.15114 0.584351C1.02975 0.647948 0.928149 0.743652 0.857414 0.861029C0.786678 0.978405 0.749525 1.11295 0.750005 1.24999V14.75C0.749982 14.8869 0.787432 15.0212 0.858295 15.1383C0.929158 15.2555 1.03073 15.351 1.152 15.4145ZM2.25 2.68174L9.93225 7.99999L2.25 13.3182V2.68174Z" fill="#81A1C1"/>
</svg>
