<svg width="24" height="16" viewBox="0 0 24 16" fill="none" xmlns="http://www.w3.org/2000/svg">
<path d="M16.5 4.625V13.625C16.5 14.0228 16.342 14.4044 16.0607 14.6857C15.7794 14.967 15.3978 15.125 15 15.125H4.5C4.00754 15.125 3.51991 15.028 3.06494 14.8395C2.60997 14.6511 2.19657 14.3749 1.84835 14.0267C1.14509 13.3234 0.75 12.3696 0.75 11.375V2.375C0.75 1.97718 0.908035 1.59564 1.18934 1.31434C1.47064 1.03304 1.85218 0.875 2.25 0.875H12.75C13.7446 0.875 14.6984 1.27009 15.4017 1.97335C16.1049 2.67661 16.5 3.63044 16.5 4.625ZM22.875 2.85312C22.762 2.78442 22.6323 2.74808 22.5 2.74808C22.3677 2.74808 22.238 2.78442 22.125 2.85312L18.375 4.99063C18.26 5.05702 18.1647 5.15276 18.0988 5.26806C18.0329 5.38336 17.9988 5.51408 18 5.64688V10.3531C17.9988 10.4859 18.0329 10.6166 18.0988 10.7319C18.1647 10.8472 18.26 10.943 18.375 11.0094L22.125 13.1469C22.2393 13.2124 22.3683 13.2479 22.5 13.25C22.6319 13.2492 22.7612 13.2136 22.875 13.1469C22.9899 13.0828 23.0854 12.9888 23.1514 12.875C23.2174 12.7611 23.2515 12.6316 23.25 12.5V3.5C23.2515 3.36841 23.2174 3.23886 23.1514 3.12501C23.0854 3.01116 22.9899 2.91723 22.875 2.85312Z" fill="#BF616A"/>
</svg>
