<svg width="32" height="32" viewBox="0 0 32 32" fill="none" xmlns="http://www.w3.org/2000/svg">
<path d="M18.6666 4.35866C18.6666 3.42399 17.9093 2.66666 16.9746 2.66666H15.0266C14.0906 2.66666 13.3333 3.42399 13.3333 4.35866C13.3333 5.12932 12.8053 5.79066 12.0866 6.07332C11.9733 6.11866 11.86 6.16666 11.7493 6.21466C11.0413 6.52132 10.2 6.42799 9.65329 5.88266C9.33601 5.5656 8.90583 5.38751 8.45729 5.38751C8.00875 5.38751 7.57857 5.5656 7.26129 5.88266L5.88263 7.26132C5.56557 7.5786 5.38748 8.00878 5.38748 8.45732C5.38748 8.90586 5.56557 9.33605 5.88263 9.65332C6.42929 10.2 6.52263 11.04 6.21329 11.7493C6.16469 11.861 6.11802 11.9734 6.07329 12.0867C5.79063 12.8053 5.12929 13.3333 4.35863 13.3333C3.42396 13.3333 2.66663 14.0907 2.66663 15.0253V16.9747C2.66663 17.9093 3.42396 18.6667 4.35863 18.6667C5.12929 18.6667 5.79063 19.1947 6.07329 19.9133C6.11863 20.0267 6.16663 20.14 6.21329 20.2507C6.52129 20.9587 6.42796 21.8 5.88263 22.3467C5.56557 22.6639 5.38748 23.0941 5.38748 23.5427C5.38748 23.9912 5.56557 24.4214 5.88263 24.7387L7.26129 26.1173C7.57857 26.4344 8.00875 26.6125 8.45729 26.6125C8.90583 26.6125 9.33601 26.4344 9.65329 26.1173C10.2 25.5707 11.04 25.4773 11.7493 25.7853C11.86 25.8347 11.9733 25.8813 12.0866 25.9267C12.8053 26.2093 13.3333 26.8707 13.3333 27.6413C13.3333 28.576 14.0906 29.3333 15.0253 29.3333H16.9746C17.9093 29.3333 18.6666 28.576 18.6666 27.6413C18.6666 26.8707 19.1946 26.2093 19.9133 25.9253C20.0266 25.8813 20.14 25.8347 20.2506 25.7867C20.9586 25.4773 21.8 25.572 22.3453 26.1173C22.5024 26.2745 22.689 26.3992 22.8943 26.4843C23.0996 26.5694 23.3197 26.6131 23.542 26.6131C23.7642 26.6131 23.9843 26.5694 24.1896 26.4843C24.3949 26.3992 24.5815 26.2745 24.7386 26.1173L26.1173 24.7387C26.4343 24.4214 26.6124 23.9912 26.6124 23.5427C26.6124 23.0941 26.4343 22.6639 26.1173 22.3467C25.5706 21.8 25.4773 20.96 25.7853 20.2507C25.8346 20.14 25.8813 20.0267 25.9266 19.9133C26.2093 19.1947 26.8706 18.6667 27.6413 18.6667C28.576 18.6667 29.3333 17.9093 29.3333 16.9747V15.0267C29.3333 14.092 28.576 13.3347 27.6413 13.3347C26.8706 13.3347 26.2093 12.8067 25.9253 12.088C25.8806 11.9747 25.8339 11.8623 25.7853 11.7507C25.4786 11.0427 25.572 10.2013 26.1173 9.65466C26.4343 9.33738 26.6124 8.90719 26.6124 8.45866C26.6124 8.01012 26.4343 7.57993 26.1173 7.26266L24.7386 5.88399C24.4213 5.56694 23.9912 5.38884 23.5426 5.38884C23.0941 5.38884 22.6639 5.56694 22.3466 5.88399C21.8 6.43066 20.96 6.52399 20.2506 6.21599C20.139 6.16693 20.0265 6.11982 19.9133 6.07466C19.1946 5.79066 18.6666 5.12932 18.6666 4.35999V4.35866Z" stroke="#81A1C1" stroke-width="2"/>
<path d="M21.3333 16C21.3333 17.4145 20.7714 18.771 19.7712 19.7712C18.771 20.7714 17.4144 21.3333 16 21.3333C14.5855 21.3333 13.2289 20.7714 12.2287 19.7712C11.2285 18.771 10.6666 17.4145 10.6666 16C10.6666 14.5855 11.2285 13.2289 12.2287 12.2288C13.2289 11.2286 14.5855 10.6667 16 10.6667C17.4144 10.6667 18.771 11.2286 19.7712 12.2288C20.7714 13.2289 21.3333 14.5855 21.3333 16V16Z" stroke="#81A1C1" stroke-width="2"/>
</svg>
