<svg width="174" height="159" viewBox="0 0 174 159" fill="none" xmlns="http://www.w3.org/2000/svg">
<path d="M85.9792 78.1406C85.9792 78.1771 85.9792 78.2188 85.9792 78.2604C85.974 78.3385 85.9688 78.4219 85.9635 78.5C85.9688 78.4219 85.974 78.3385 85.9792 78.2604C85.9792 78.2188 85.9792 78.1771 85.9792 78.1406Z" fill="#88C0D0"/>
<path d="M120.354 53.3073C122.089 53.3073 123.516 51.8854 123.516 50.1458C123.516 48.4115 122.089 46.9896 120.354 46.9896C118.615 46.9896 117.193 48.4115 117.193 50.1458C117.193 51.8854 118.615 53.3073 120.354 53.3073ZM120.354 54.3021C122.641 54.3021 124.51 52.4323 124.51 50.1458C124.51 47.8646 122.641 45.9948 120.354 45.9948C118.068 45.9948 116.214 47.8646 116.214 50.1458C116.214 52.4323 118.068 54.3021 120.354 54.3021ZM113.172 60.7656C114.906 60.7656 116.318 59.3542 116.318 57.6042C116.318 55.8698 114.906 54.4583 113.172 54.4583C111.432 54.4583 110.01 55.8698 110.01 57.6042C110.01 59.3542 111.432 60.7656 113.172 60.7656ZM113.172 61.7552C115.458 61.7552 117.312 59.8906 117.312 57.6042C117.312 55.3333 115.458 53.4636 113.172 53.4636C110.885 53.4636 109.016 55.3333 109.016 57.6042C109.016 59.8906 110.885 61.7552 113.172 61.7552ZM79.9948 62.9688C81.7292 62.9688 83.1406 61.5625 83.1406 59.8229C83.1406 58.0886 81.7292 56.6667 79.9948 56.6667C78.2552 56.6667 76.8333 58.0886 76.8333 59.8229C76.8333 61.5625 78.2552 62.9688 79.9948 62.9688ZM79.9948 63.9636C82.2812 63.9636 84.1354 62.1094 84.1354 59.8229C84.1354 57.5365 82.2812 55.6719 79.9948 55.6719C77.7083 55.6719 75.8385 57.5365 75.8385 59.8229C75.8385 62.1094 77.7083 63.9636 79.9948 63.9636ZM65.6146 57.4479C67.349 57.4479 68.776 56.0365 68.776 54.2865C68.776 52.5521 67.349 51.1406 65.6146 51.1406C63.875 51.1406 62.4531 52.5521 62.4531 54.2865C62.4531 56.0365 63.875 57.4479 65.6146 57.4479ZM65.6146 58.4427C67.901 58.4427 69.7656 56.5729 69.7656 54.2865C69.7656 52.0156 67.901 50.1458 65.6146 50.1458C63.3281 50.1458 61.474 52.0156 61.474 54.2865C61.474 56.5729 63.3281 58.4427 65.6146 58.4427ZM52.8906 53.5833C54.6406 53.5833 56.0521 52.1615 56.0521 50.4219C56.0521 48.6875 54.6406 47.2656 52.8906 47.2656C51.1562 47.2656 49.7448 48.6875 49.7448 50.4219C49.7448 52.1615 51.1562 53.5833 52.8906 53.5833ZM52.8906 54.5729C55.1771 54.5729 57.0469 52.7083 57.0469 50.4219C57.0469 48.1354 55.1771 46.2865 52.8906 46.2865C50.6198 46.2865 48.75 48.1354 48.75 50.4219C48.75 52.7083 50.6198 54.5729 52.8906 54.5729ZM76.401 42.5208C78.1406 42.5208 79.5521 41.1146 79.5521 39.3646C79.5521 37.625 78.1406 36.2188 76.401 36.2188C74.651 36.2188 73.2396 37.625 73.2396 39.3646C73.2396 41.1146 74.651 42.5208 76.401 42.5208ZM76.401 43.5156C78.6875 43.5156 80.5417 41.6511 80.5417 39.3646C80.5417 37.0938 78.6875 35.224 76.401 35.224C74.1146 35.224 72.25 37.0938 72.25 39.3646C72.25 41.6511 74.1146 43.5156 76.401 43.5156ZM100.172 48.6094C101.911 48.6094 103.333 47.1823 103.333 45.4479C103.333 43.7136 101.911 42.2865 100.172 42.2865C98.4375 42.2865 97.0156 43.7136 97.0156 45.4479C97.0156 47.1823 98.4375 48.6094 100.172 48.6094ZM100.172 49.599C102.458 49.599 104.328 47.7344 104.328 45.4479C104.328 43.1615 102.458 41.3073 100.172 41.3073C97.8906 41.3073 96.0208 43.1615 96.0208 45.4479C96.0208 47.7344 97.8906 49.599 100.172 49.599ZM120.625 33C123.052 33 125.036 31.0156 125.036 28.5938C125.036 26.1667 123.052 24.1823 120.625 24.1823C118.198 24.1823 116.229 26.1667 116.229 28.5938C116.229 31.0156 118.198 33 120.625 33ZM140.51 52.7708C140.37 51.3229 139.531 49.0573 139.057 47.9531C138.849 47.4323 138.849 47.2031 138.911 46.8333C138.922 46.7344 138.943 46.6042 138.953 46.4167C138.964 46.3125 138.964 46.2083 138.964 46.1094L113.568 57.9219L111.839 66.0052C112.161 66.1875 112.5 66.5156 112.891 66.9011C113.188 67.1875 113.49 67.4844 113.724 67.6511C115.562 68.9948 116.182 69.4479 118.234 70.2656C118.365 70.3125 118.464 70.375 118.536 70.4167C118.609 70.4583 118.646 70.4792 118.74 70.5104L120.615 71.0521C122.734 71.5469 125.057 71.5781 127.115 71.1354L127.198 71.1146C127.979 70.9583 128.599 70.8333 129.312 70.5729C129.469 70.5104 129.641 70.4531 129.807 70.3958C129.979 70.3333 130.151 70.2761 130.312 70.2136L130.417 70.1719C130.578 70.1146 130.651 70.0886 130.802 70.0208C131.771 69.6042 132.75 69.0521 133.583 68.4583L133.771 68.3229C135.562 67.0104 137.833 64.7761 138.839 62.4271C138.938 62.1875 139.057 61.9479 139.177 61.7083C139.339 61.3854 139.495 61.0833 139.604 60.7656C139.995 59.5625 140.26 58.4583 140.422 57.4011C140.651 55.8542 140.672 54.5104 140.51 52.7708ZM112.635 57.9271L84.6719 50.1458L80.6354 59.4948L110.901 65.9636C110.906 65.9636 110.911 65.9583 110.917 65.9583L112.635 57.9271ZM110.396 66.7917L80.375 60.375L78.8385 70.7969C79.2292 71.0677 79.6042 71.5677 80.0625 72.2188C80.1667 72.3646 80.2552 72.4948 80.3281 72.5833C81.1823 73.6823 82.4948 74.8646 83.7552 75.6771L85.9635 76.9531C87.2604 77.7083 89.0625 78.2604 91.3073 78.5938C94.5208 79.0833 98.125 78.5052 101.453 76.9636C102.87 76.3125 104.365 75.3021 105.661 74.1094C106.495 73.3594 107.151 72.6198 107.807 71.7031C108.552 70.6927 109.104 69.8542 109.583 68.7969C109.651 68.6563 109.698 68.5625 109.75 68.4792C109.781 68.4219 109.812 68.3698 109.844 68.2813C109.865 68.2396 109.901 68.1354 109.948 67.9948C110.141 67.4583 110.281 67.0729 110.396 66.7917ZM79.4896 60.1198L65.1771 54.6094L64.651 46.1146L53.3385 50.7344L52.5417 79.4375L57.0625 72.6563L77.7708 70.8386C77.8229 70.7969 77.8698 70.7604 77.9271 70.7188L79.4896 60.1198ZM77.0625 71.8177L57.5781 73.5261L52.7448 80.7917C56.2865 84.3281 59.8333 85.5261 63.026 84.2396C65.9948 83.0417 67.974 79.8386 67.9792 78.2448V78.0313L68.1042 77.8594C68.5156 77.3073 68.7031 76.9792 68.8177 76.7813C69.1094 76.2813 69.2865 76.1615 69.8646 76.0833C70.0729 76.0573 70.3854 76.0104 70.9115 75.8906C72.3594 75.5469 73.6979 74.9271 74.776 74.099C74.8698 74.0313 74.9479 73.9688 75.026 73.9167C75.125 73.8438 75.2135 73.7813 75.3073 73.6927C76.0521 73.0156 76.599 72.4219 77.0625 71.8177ZM52.4219 50.8958L36.026 51.4271C35.8854 51.6354 35.724 51.8073 35.5365 51.9948C35.0781 52.4688 34.3854 53.1771 33.4219 55.2761C32.75 56.7656 32.4479 59.2292 32.7292 60.8906C32.875 61.7292 33.0677 62.3438 33.3073 63.1198L33.375 63.3386C33.5417 63.8646 34.0521 64.7813 34.4219 65.2917L36.3906 67.5261C36.6198 67.7344 36.8177 67.8698 36.9948 68C37.3958 68.2865 37.8594 68.6094 37.8594 69.3802C37.8177 71.6875 38.3542 73.8229 39.375 75.4011L40.7812 77.2865C41.5312 78.1042 43.0052 79.2656 44.1146 79.7188C45.9323 80.4531 48.6823 81.0417 50.401 80.5938L50.6198 80.5313C50.9167 80.4479 51.2396 80.3542 51.6042 80.3386L52.4219 50.8958ZM35.0208 49.4948C35.0677 49.5313 35.1458 49.5677 35.224 49.6094C35.4271 49.7083 35.6719 49.8333 35.8698 50.0156L55.849 30.5L36.526 34.8229L36.4792 34.8802C36.349 35.0469 36.2187 35.1354 36.1198 35.1979C36.0937 35.2136 36.0677 35.2344 36.0312 35.2552L35.9687 35.2969C35.8906 35.3438 35.8333 35.3698 35.7865 35.3958C35.6979 35.4375 35.6875 35.4479 35.5937 35.5208C35.401 35.6771 35.2344 35.8386 35.099 35.9896L35.0365 36.0625L34.9531 36.1146C32.6823 37.5469 31.3281 40 31.3281 42.6771C31.3281 44.974 32.3281 47.1354 34.0729 48.6042L34.1562 48.6875C34.4115 49 34.7083 49.2813 35.0208 49.4948ZM36.5885 33.8698L56.8594 29.3333L56.8385 10.4323C56.1615 10.3802 55.4896 10.6042 54.9687 11.0625L54.7396 11.2188L54.599 11.2448C51.8594 11.6667 49.5365 13.5677 48.5417 16.1979L48.4844 16.349L48.3594 16.4531C47.5937 17.125 46.9479 17.974 46.4323 18.9792C46.3802 19.0781 46.3385 19.1615 46.3073 19.25L46.2187 19.4844L45.9948 19.599C44.0521 20.6094 42.1927 22.125 40.6302 23.9844C38.0052 27.1042 36.5208 30.7552 36.5885 33.8698ZM36.6927 50.4896L52.7969 49.9688L64.8698 45.0365L75.4115 39.375L57.4062 30.2552L36.6927 50.4896ZM74.8698 40.7083L65.5417 45.7136L65.9896 52.9844L74.8698 40.7083ZM66.3333 54.0729L79.75 59.2396L83.8802 49.6667L76.4167 40.125L66.3333 54.0729ZM75.3385 22.9688C75.125 23.1875 74.9375 23.4323 74.7812 23.6927L57.75 10.75L57.776 29.1511L74.1979 26.125C74.2187 26.4323 74.2708 26.7344 74.3594 27.0208L58.7344 29.9063L76.0417 38.6667L77.3021 29.8386C77.5937 29.9167 77.8958 29.9583 78.2031 29.9688L76.8802 39.2344L84.5833 49.0833L99.2396 45.224L81.0885 28.9115C81.3177 28.7083 81.5208 28.4792 81.6979 28.2344L99.9531 44.6354L104.589 29.8958C104.865 30.0156 105.156 30.1094 105.458 30.1719L101.073 44.1146L117.161 30.8542C117.328 31.1146 117.526 31.349 117.745 31.5625L101.177 45.2136L120.047 49.6094L128.391 23.9115L124.302 26.6667C124.161 26.3958 123.99 26.1406 123.792 25.9115L128.573 22.6875C128.474 19.1458 125.391 15.0833 120.859 12.5365C117.849 10.849 114.578 10.0417 111.755 10.2552L119.156 24.7136C118.87 24.8229 118.599 24.9636 118.344 25.1302L111.073 10.9219L107.828 22.2708C107.552 22.1563 107.255 22.0729 106.953 22.0208L110.38 10.0156L110.349 9.93751C109.776 8.58334 108.823 7.41668 107.599 6.56251C105.385 5.04168 102.531 4.78126 100.068 5.84897L105.406 22.0469C105.104 22.1094 104.812 22.2083 104.542 22.3386L99.2344 6.25001L81.6094 23.2969C81.4219 23.0521 81.2083 22.8281 80.974 22.6354L98.6771 5.52084C98.25 5.02605 97.7656 4.58855 97.2396 4.23439C94.7812 2.53126 91.6302 2.37501 89.0104 3.83334L88.8125 3.94272L88.3229 3.85939L88.1823 3.73439C88.0052 3.57814 87.8125 3.4323 87.5521 3.23959C84.875 1.40105 81.2812 1.4323 78.625 3.32293L78.4948 3.41147L78.3385 3.43751C78.0417 3.47918 77.7917 3.52605 77.5469 3.59376C77.2448 3.66668 77.0417 3.72397 76.8958 3.76564L78.4375 21.6875C78.401 21.6875 78.3698 21.6823 78.3333 21.6823C78.0573 21.6823 77.7865 21.7136 77.526 21.7656L75.9792 3.80209C73.349 3.04689 70.1927 3.08855 67.0521 3.94272C63.1094 5.01564 59.7865 7.20314 58.0625 9.83855L75.3385 22.9688ZM119.469 50.4115L100.484 45.9896L100.396 46.2604L100.052 45.9531L86.1562 49.6146L113.031 57.0938L119.469 50.4115ZM115.203 56.1563L135.042 46.9219L120.594 50.5573L115.203 56.1563ZM129.479 23.5261L121.047 49.5052L139.031 44.9792C140.37 41.5938 139.219 37.8021 136.219 35.7344C135.964 35.5469 135.693 35.3802 135.349 35.2031L135.234 35.1458L135.062 34.9427C135.031 34.9011 134.995 34.8542 134.953 34.8125L134.641 34.5L134.812 34.0938C136.245 30.7188 135.089 26.7604 132.068 24.6771C131.271 24.125 130.401 23.7448 129.479 23.5261ZM141.714 57.5938C141.542 58.7292 141.26 59.8958 140.844 61.1771C140.703 61.5886 140.521 61.9479 140.344 62.2969C140.234 62.5104 140.13 62.7188 140.042 62.9375C139.099 65.1406 137.042 67.5469 134.547 69.375L134.349 69.5156C133.438 70.1667 132.365 70.7656 131.333 71.2083C131.161 71.2917 131.073 71.3229 130.865 71.4011L130.781 71.4323C130.615 71.5 130.422 71.5625 130.234 71.6302C130.078 71.6823 129.922 71.7344 129.771 71.7917C128.953 72.0938 128.26 72.2344 127.458 72.3958L127.38 72.4115C125.146 72.8906 122.625 72.8594 120.286 72.3177L118.359 71.7604C118.104 71.6771 117.969 71.599 117.87 71.5417C117.839 71.5208 117.807 71.5 117.76 71.4792C115.542 70.599 114.786 70.0469 112.953 68.7083C112.651 68.4844 112.307 68.1563 111.979 67.8333C111.854 67.7136 111.693 67.5573 111.552 67.4219C111.411 67.7865 111.25 68.2344 111.182 68.4323C111.12 68.599 111.078 68.7188 111.062 68.7604C111 68.9219 110.943 69.0156 110.885 69.125C110.854 69.1823 110.818 69.2396 110.776 69.3386C110.245 70.5 109.651 71.3958 108.865 72.4688C108.167 73.4427 107.432 74.2708 106.542 75.0781C105.151 76.3542 103.536 77.4479 102 78.1511C98.4479 79.7969 94.5781 80.4115 91.1146 79.8854C88.7031 79.5313 86.75 78.9219 85.3073 78.0781L83.0781 76.7865C81.6719 75.8906 80.2344 74.5938 79.2969 73.3854C79.2135 73.2813 79.1094 73.1354 78.9948 72.9688C78.8646 72.7813 78.625 72.4479 78.4167 72.1875L78.3594 72.2708C77.7969 73.0625 77.1302 73.7969 76.1927 74.6563C76.0469 74.7865 75.9167 74.8802 75.7917 74.974C75.724 75.0208 75.6562 75.0729 75.5729 75.1354C74.349 76.0729 72.8385 76.7761 71.2083 77.1615C70.6198 77.2969 70.2604 77.349 70.0417 77.375C70.0208 77.3802 70 77.3802 69.9792 77.3854C69.9687 77.4011 69.9583 77.4167 69.9479 77.4375C69.8333 77.6354 69.6458 77.9583 69.276 78.474C69.1198 80.5469 66.9479 84.0625 63.5156 85.4479C62.6458 85.7969 61.6146 86.0521 60.4323 86.0521C58.1146 86.0521 55.2448 85.0625 52.0052 81.8958L51.5417 82.5938L51.5677 81.6615C51.3854 81.6823 51.1979 81.724 50.9792 81.7865C50.901 81.8073 50.8177 81.8333 50.7344 81.8542C48.7135 82.3854 45.7083 81.7708 43.6198 80.9271C42.3125 80.3906 40.6458 79.0886 39.7917 78.1354L39.75 78.0886L38.3021 76.1458C37.1198 74.3177 36.5052 71.9219 36.5521 69.3698C36.5521 69.3229 36.5469 69.3073 36.5469 69.3073C36.5208 69.2604 36.3542 69.1458 36.2344 69.0625C36.0312 68.9167 35.7812 68.7396 35.4844 68.4636L35.4323 68.4167L33.3854 66.0833C32.9479 65.4896 32.3437 64.4167 32.125 63.7292L32.0573 63.5052C31.8125 62.7188 31.6042 62.0365 31.4427 61.1146C31.1146 59.1979 31.4583 56.4583 32.2344 54.7396C33.2917 52.4271 34.0781 51.6198 34.6042 51.0833C34.6823 51 34.7552 50.9271 34.8125 50.8646C34.75 50.8281 34.6823 50.7969 34.6354 50.7708C34.5 50.7031 34.3698 50.6354 34.276 50.5729C33.875 50.2865 33.5104 49.9479 33.1875 49.5625C31.1719 47.849 30.0208 45.3438 30.0208 42.6771C30.0208 39.5833 31.5729 36.7396 34.1771 35.0625C34.349 34.875 34.5469 34.6875 34.7708 34.5104C34.9583 34.3542 35.0521 34.3021 35.1927 34.2344C35.2187 34.2188 35.25 34.2031 35.2917 34.1823C35.125 30.6875 36.7292 26.5938 39.6302 23.1458C41.25 21.224 43.1667 19.6354 45.1875 18.5521C45.2135 18.5 45.2396 18.4479 45.2656 18.3906C45.8333 17.2813 46.5417 16.3438 47.375 15.5833C48.5469 12.6458 51.1458 10.5208 54.224 9.98439C54.9948 9.35418 55.974 9.04689 56.9635 9.12501C58.8594 6.22918 62.4635 3.83855 66.7083 2.6823C70.0937 1.76564 73.5208 1.71876 76.3906 2.55209C76.5521 2.50522 76.8021 2.4323 77.2187 2.32814C77.4635 2.26564 77.7187 2.21355 77.9948 2.16668C81.0833 0.0520931 85.2083 0.0468855 88.3073 2.17189C88.4323 2.26564 88.5833 2.37501 88.7396 2.50001C91.7187 1.01043 95.224 1.2448 97.974 3.15626C98.5729 3.5573 99.1302 4.04689 99.6198 4.60418L99.651 4.57814L99.6562 4.60418C102.51 3.41147 105.792 3.73438 108.344 5.48959C109.635 6.39064 110.667 7.58855 111.344 8.97918C114.495 8.65626 118.161 9.53126 121.495 11.4011C126.172 14.0208 129.328 18.0365 129.818 21.8542L130.078 21.6719L129.885 22.2708C130.927 22.5313 131.911 22.9792 132.807 23.6042C136.208 25.9427 137.583 30.3281 136.188 34.1719C136.49 34.3386 136.745 34.5 136.979 34.6719C140.453 37.0677 141.797 41.4688 140.266 45.4115C140.286 45.7708 140.281 46.125 140.255 46.4948C140.245 46.7344 140.219 46.9011 140.198 47.0313C140.172 47.2188 140.172 47.2188 140.266 47.4479C140.885 48.9011 141.667 51.1406 141.812 52.6458C141.984 54.5 141.958 55.9323 141.714 57.5938ZM110.234 27.25L116.5 28.3386C116.521 28.0261 116.568 27.724 116.656 27.4375L110.385 26.349C110.37 26.6615 110.318 26.9636 110.234 27.25ZM82.4427 26.3229L102.13 26.5156C102.115 26.375 102.109 26.2396 102.109 26.099C102.109 25.9271 102.12 25.7656 102.141 25.599L82.4531 25.4063C82.4687 25.5417 82.474 25.6823 82.474 25.8229C82.474 25.9896 82.4635 26.1563 82.4427 26.3229ZM106.266 30.4688C108.667 30.4688 110.62 28.5156 110.62 26.0938C110.62 23.6927 108.667 21.7396 106.266 21.7396C103.844 21.7396 101.885 23.6927 101.885 26.0938C101.885 28.5156 103.844 30.4688 106.266 30.4688ZM57.3177 32.849C59.0573 32.849 60.4792 31.4375 60.4792 29.7031C60.4792 27.9636 59.0573 26.5417 57.3177 26.5417C55.5833 26.5417 54.1615 27.9636 54.1615 29.7031C54.1615 31.4375 55.5833 32.849 57.3177 32.849ZM57.3177 33.8386C59.6042 33.8386 61.474 31.9844 61.474 29.7031C61.474 27.4167 59.6042 25.5469 57.3177 25.5469C55.0365 25.5469 53.1771 27.4167 53.1771 29.7031C53.1771 31.9844 55.0365 33.8386 57.3177 33.8386ZM78.3385 30.1354C75.9687 30.1354 74.0208 28.1927 74.0208 25.8229C74.0208 23.4479 75.9687 21.5261 78.3385 21.5261C80.7083 21.5261 82.6354 23.4479 82.6354 25.8229C82.6354 28.1927 80.7083 30.1354 78.3385 30.1354Z" fill="#88C0D0"/>
<path d="M11.6989 124.934L2.59475 106.288V126.6H0.198914V103.33H3.78225L11.7197 119.85L19.6364 103.33H23.2197V126.6H20.8031V106.267L11.6989 124.934Z" fill="#ECEFF4"/>
<path d="M28.3366 126.6V103.33H30.8991V126.6H28.3366Z" fill="#ECEFF4"/>
<path d="M36.0105 103.33H38.573L52.5522 122.205V103.33H54.9897V126.6H52.7188L38.4271 107.225V126.6H36.0105V103.33Z" fill="#ECEFF4"/>
<path d="M60.0952 126.6V103.33H67.7619C69.5119 103.33 71.1369 103.632 72.6369 104.225C74.1473 104.809 75.4494 105.616 76.5327 106.642C77.6161 107.658 78.4598 108.882 79.0744 110.309C79.6838 111.741 79.9911 113.298 79.9911 114.975C79.9911 116.658 79.6838 118.215 79.0744 119.642C78.4598 121.074 77.6213 122.298 76.5536 123.309C75.4806 124.324 74.189 125.132 72.6786 125.725C71.1786 126.309 69.5379 126.6 67.7619 126.6H60.0952ZM67.9077 105.663H62.6577V124.267H67.9077C69.2254 124.267 70.4702 124.033 71.6369 123.559C72.814 123.09 73.8296 122.434 74.6786 121.6C75.5223 120.767 76.189 119.783 76.6786 118.642C77.1629 117.507 77.4077 116.283 77.4077 114.975C77.4077 113.673 77.1629 112.449 76.6786 111.309C76.189 110.158 75.5223 109.173 74.6786 108.35C73.8296 107.517 72.814 106.866 71.6369 106.392C70.4702 105.908 69.2254 105.663 67.9077 105.663Z" fill="#ECEFF4"/>
<path d="M91.1563 126.6V103.33H93.7188V113.746H107.24V103.33H109.802V126.6H107.24V116.038H93.7188V126.6H91.1563Z" fill="#ECEFF4"/>
<path d="M114.909 126.6V103.33H131.555V105.6H117.471V113.746H126.659V115.975H117.471V124.35H131.68V126.6H114.909Z" fill="#ECEFF4"/>
<path d="M135.373 126.6V103.33H137.935V124.309H151.789V126.6H135.373Z" fill="#ECEFF4"/>
<path d="M155.438 126.6V103.33H165.542C167.792 103.33 169.604 103.949 170.979 105.184C172.354 106.423 173.042 108.048 173.042 110.059C173.042 112.074 172.344 113.699 170.959 114.934C169.584 116.173 167.776 116.788 165.542 116.788H158V126.6H155.438ZM165.334 105.642H158V114.58H165.334C166.901 114.58 168.151 114.179 169.084 113.371C170.011 112.554 170.479 111.455 170.479 110.08C170.479 108.705 170.011 107.621 169.084 106.83C168.151 106.038 166.901 105.642 165.334 105.642Z" fill="#ECEFF4"/>
<path d="M3.57559 156.115L7.45059 146.782H8.67976L12.5131 156.115H11.3881L10.2214 153.178H5.82559L4.63809 156.115H3.57559ZM6.17976 152.303H9.86726L8.03393 147.74L6.17976 152.303Z" fill="#ECEFF4"/>
<path d="M18.3645 156.241C17.6405 156.241 17.052 156.053 16.5936 155.678C16.1353 155.303 15.9061 154.819 15.9061 154.22C15.9061 153.595 16.1405 153.105 16.6145 152.741C17.0989 152.366 17.7499 152.178 18.5728 152.178C18.9322 152.178 19.2811 152.22 19.6145 152.303C19.9478 152.386 20.2499 152.501 20.5311 152.636V151.761C20.5311 151.22 20.3749 150.819 20.0728 150.553C19.7811 150.277 19.3436 150.136 18.7603 150.136C18.427 150.136 18.0936 150.188 17.7603 150.282C17.427 150.381 17.0624 150.527 16.677 150.72L16.302 149.97C16.7707 149.735 17.2082 149.569 17.6145 149.47C18.0311 149.36 18.4374 149.303 18.8436 149.303C19.6874 149.303 20.3436 149.506 20.802 149.907C21.2603 150.313 21.4895 150.881 21.4895 151.616V156.116H20.5311V155.47C20.2239 155.72 19.8905 155.918 19.5311 156.053C19.1822 156.178 18.7916 156.241 18.3645 156.241ZM16.8436 154.199C16.8436 154.574 16.9999 154.881 17.3228 155.116C17.6405 155.355 18.052 155.47 18.552 155.47C18.953 155.47 19.3124 155.407 19.6353 155.282C19.9686 155.157 20.2655 154.964 20.5311 154.699V153.428C20.2499 153.251 19.953 153.116 19.6353 153.032C19.328 152.949 18.9791 152.907 18.5936 152.907C18.0624 152.907 17.6405 153.027 17.3228 153.261C16.9999 153.501 16.8436 153.813 16.8436 154.199Z" fill="#ECEFF4"/>
<path d="M23.6368 148.157C23.4545 148.157 23.293 148.095 23.1576 147.97C23.0326 147.834 22.9701 147.673 22.9701 147.491C22.9701 147.298 23.0326 147.136 23.1576 147.011C23.293 146.886 23.4545 146.824 23.6368 146.824C23.8139 146.824 23.9701 146.886 24.0951 147.011C24.2305 147.136 24.3035 147.298 24.3035 147.491C24.3035 147.673 24.2305 147.834 24.0951 147.97C23.9701 148.095 23.8139 148.157 23.6368 148.157ZM22.4076 158.886C22.2826 158.886 22.1732 158.876 22.0743 158.866C21.9649 158.85 21.8764 158.829 21.8035 158.803V157.991C21.8764 158.001 21.9493 158.011 22.0326 158.011C22.1055 158.022 22.1889 158.032 22.2826 158.032C22.5847 158.032 22.8035 157.959 22.9285 157.824C23.0639 157.683 23.1368 157.454 23.1368 157.136V149.428H24.1368V157.199C24.1368 157.741 23.9805 158.157 23.6785 158.449C23.3712 158.741 22.9493 158.886 22.4076 158.886Z" fill="#ECEFF4"/>
<path d="M26.7604 149.428V153.47C26.7604 154.053 26.9271 154.522 27.2604 154.866C27.5938 155.214 28.0417 155.386 28.6146 155.386C29.0156 155.386 29.375 155.298 29.6979 155.116C30.0156 154.938 30.2708 154.678 30.4688 154.345V149.428H31.4479V156.116H30.4688V155.345C30.2031 155.652 29.8958 155.881 29.5521 156.032C29.2031 156.168 28.8073 156.241 28.3646 156.241C27.599 156.241 26.974 156.006 26.4896 155.532C26.0156 155.048 25.7812 154.423 25.7812 153.657V149.428H26.7604Z" fill="#ECEFF4"/>
<path d="M38.3475 156.116V155.407C38.0558 155.673 37.7225 155.876 37.3475 156.011C36.9829 156.147 36.5975 156.22 36.1808 156.22C35.7069 156.22 35.2642 156.136 34.8475 155.97C34.4413 155.793 34.0871 155.548 33.785 155.241C33.4933 154.923 33.2538 154.553 33.0767 154.136C32.91 153.709 32.8267 153.251 32.8267 152.761C32.8267 152.293 32.91 151.845 33.0767 151.428C33.2538 151.001 33.4933 150.631 33.785 150.324C34.0871 150.022 34.4517 149.777 34.8683 149.595C35.285 149.418 35.7277 149.324 36.2017 149.324C36.5767 149.324 36.9413 149.397 37.3058 149.532C37.6808 149.657 38.0194 149.845 38.3267 150.095V146.782L39.3058 146.553V156.116H38.3475ZM33.785 152.761C33.785 153.126 33.8475 153.464 33.9725 153.782C34.1079 154.105 34.2902 154.381 34.5142 154.616C34.7329 154.839 34.9933 155.022 35.285 155.157C35.5871 155.298 35.9152 155.366 36.2642 155.366C36.6808 155.366 37.0663 155.282 37.4308 155.116C37.7902 154.949 38.0871 154.72 38.3267 154.428V151.116C38.0871 150.839 37.7902 150.616 37.4308 150.449C37.0663 150.282 36.6808 150.199 36.2642 150.199C35.5663 150.199 34.9777 150.444 34.4933 150.928C34.0194 151.418 33.785 152.027 33.785 152.761Z" fill="#ECEFF4"/>
<path d="M43.0851 156.241C42.3612 156.241 41.7726 156.053 41.3143 155.678C40.856 155.303 40.6268 154.819 40.6268 154.22C40.6268 153.595 40.8612 153.105 41.3351 152.741C41.8195 152.366 42.4706 152.178 43.2935 152.178C43.6529 152.178 44.0018 152.22 44.3351 152.303C44.6685 152.386 44.9706 152.501 45.2518 152.636V151.761C45.2518 151.22 45.0956 150.819 44.7935 150.553C44.5018 150.277 44.0643 150.136 43.481 150.136C43.1476 150.136 42.8143 150.188 42.481 150.282C42.1476 150.381 41.7831 150.527 41.3976 150.72L41.0226 149.97C41.4914 149.735 41.9289 149.569 42.3351 149.47C42.7518 149.36 43.1581 149.303 43.5643 149.303C44.4081 149.303 45.0643 149.506 45.5226 149.907C45.981 150.313 46.2101 150.881 46.2101 151.616V156.116H45.2518V155.47C44.9445 155.72 44.6112 155.918 44.2518 156.053C43.9029 156.178 43.5122 156.241 43.0851 156.241ZM41.5643 154.199C41.5643 154.574 41.7206 154.881 42.0435 155.116C42.3612 155.355 42.7726 155.47 43.2726 155.47C43.6737 155.47 44.0331 155.407 44.356 155.282C44.6893 155.157 44.9862 154.964 45.2518 154.699V153.428C44.9706 153.251 44.6737 153.116 44.356 153.032C44.0487 152.949 43.6997 152.907 43.3143 152.907C42.7831 152.907 42.3612 153.027 42.0435 153.261C41.7206 153.501 41.5643 153.813 41.5643 154.199Z" fill="#ECEFF4"/>
<path d="M56.3476 155.407C55.9831 155.688 55.5976 155.897 55.181 156.032C54.7747 156.168 54.3372 156.241 53.8685 156.241C53.3789 156.241 52.9206 156.147 52.4935 155.97C52.0768 155.793 51.7122 155.548 51.4101 155.241C51.1028 154.923 50.8581 154.553 50.681 154.136C50.5143 153.72 50.431 153.261 50.431 152.761C50.431 152.293 50.5143 151.845 50.681 151.428C50.8581 151.011 51.0976 150.652 51.3893 150.345C51.681 150.027 52.0247 149.777 52.431 149.595C52.832 149.418 53.2643 149.324 53.7226 149.324C54.1653 149.324 54.5768 149.418 54.9518 149.595C55.3372 149.777 55.6706 150.027 55.9518 150.345C56.2435 150.652 56.4622 151.011 56.6185 151.428C56.7851 151.845 56.8685 152.293 56.8685 152.761V153.074H51.3893C51.457 153.73 51.7278 154.277 52.2018 154.72C52.6706 155.152 53.2435 155.366 53.9101 155.366C54.2539 155.366 54.5872 155.319 54.9101 155.22C55.2435 155.11 55.5195 154.959 55.7435 154.761L56.3476 155.407ZM53.681 150.199C53.1081 150.199 52.6081 150.397 52.181 150.782C51.7643 151.173 51.5143 151.673 51.431 152.282H55.8893C55.806 151.699 55.556 151.209 55.1393 150.803C54.7226 150.402 54.2331 150.199 53.681 150.199Z" fill="#ECEFF4"/>
<path d="M58.2388 156.116V149.428H59.2388V150.178C59.4888 149.886 59.77 149.673 60.093 149.532C60.4263 149.381 60.7909 149.303 61.1971 149.303C61.6555 149.303 62.0617 149.418 62.4263 149.636C62.8013 149.845 63.093 150.136 63.3013 150.511C63.5773 150.11 63.9055 149.813 64.2805 149.616C64.6659 149.407 65.1034 149.303 65.593 149.303C66.3117 149.303 66.9055 149.548 67.3638 150.032C67.8221 150.506 68.0513 151.126 68.0513 151.886V156.116H67.0721V152.095C67.0721 151.501 66.9107 151.032 66.593 150.699C66.2857 150.355 65.869 150.178 65.343 150.178C64.9784 150.178 64.645 150.272 64.343 150.449C64.0357 150.631 63.7805 150.902 63.5721 151.261C63.5825 151.36 63.5982 151.464 63.6138 151.574C63.6242 151.673 63.6346 151.777 63.6346 151.886V156.116H62.6555V152.095C62.6555 151.501 62.494 151.032 62.1763 150.699C61.869 150.355 61.4575 150.178 60.9471 150.178C60.5825 150.178 60.2596 150.261 59.968 150.428C59.6763 150.584 59.4315 150.819 59.2388 151.136V156.116H58.2388Z" fill="#ECEFF4"/>
<path d="M73.5098 149.428V153.47C73.5098 154.053 73.6764 154.522 74.0098 154.866C74.3431 155.214 74.791 155.386 75.3639 155.386C75.765 155.386 76.1243 155.298 76.4473 155.116C76.765 154.938 77.0202 154.678 77.2181 154.345V149.428H78.1973V156.116H77.2181V155.345C76.9525 155.652 76.6452 155.881 76.3014 156.032C75.9525 156.168 75.5566 156.241 75.1139 156.241C74.3483 156.241 73.7233 156.006 73.2389 155.532C72.765 155.048 72.5306 154.423 72.5306 153.657V149.428H73.5098Z" fill="#ECEFF4"/>
<path d="M79.8677 156.116V149.428H80.8677V150.178C81.1177 149.886 81.3989 149.673 81.7219 149.532C82.0552 149.381 82.4198 149.303 82.826 149.303C83.2844 149.303 83.6906 149.418 84.0552 149.636C84.4302 149.845 84.7219 150.136 84.9302 150.511C85.2062 150.11 85.5344 149.813 85.9094 149.616C86.2948 149.407 86.7323 149.303 87.2219 149.303C87.9406 149.303 88.5344 149.548 88.9927 150.032C89.451 150.506 89.6802 151.126 89.6802 151.886V156.116H88.701V152.095C88.701 151.501 88.5396 151.032 88.2219 150.699C87.9146 150.355 87.4979 150.178 86.9719 150.178C86.6073 150.178 86.2739 150.272 85.9719 150.449C85.6646 150.631 85.4094 150.902 85.201 151.261C85.2114 151.36 85.2271 151.464 85.2427 151.574C85.2531 151.673 85.2635 151.777 85.2635 151.886V156.116H84.2844V152.095C84.2844 151.501 84.1229 151.032 83.8052 150.699C83.4979 150.355 83.0864 150.178 82.576 150.178C82.2114 150.178 81.8885 150.261 81.5969 150.428C81.3052 150.584 81.0604 150.819 80.8677 151.136V156.116H79.8677Z" fill="#ECEFF4"/>
<path d="M93.5137 155.199L94.097 154.553C94.3991 154.845 94.7428 155.069 95.1178 155.22C95.5033 155.376 95.8939 155.449 96.2845 155.449C96.8105 155.449 97.2428 155.339 97.5762 155.116C97.9199 154.897 98.097 154.605 98.097 154.241C98.097 153.964 97.9928 153.741 97.7845 153.574C97.5866 153.407 97.2741 153.298 96.847 153.241L95.7012 153.074C95.0345 152.98 94.5345 152.782 94.2012 152.491C93.8783 152.188 93.722 151.782 93.722 151.282C93.722 150.714 93.9564 150.251 94.4303 149.886C94.8991 149.511 95.498 149.324 96.222 149.324C96.7064 149.324 97.1647 149.402 97.597 149.553C98.0241 149.694 98.4408 149.907 98.847 150.199L98.3262 150.866C97.9512 150.631 97.5866 150.449 97.2428 150.324C96.8939 150.199 96.5397 150.136 96.1803 150.136C95.722 150.136 95.347 150.241 95.0553 150.449C94.7637 150.647 94.6178 150.907 94.6178 151.241C94.6178 151.522 94.7116 151.741 94.9095 151.907C95.1178 152.063 95.4355 152.168 95.8678 152.22L97.0345 152.386C97.7012 152.47 98.2012 152.668 98.5345 152.97C98.8678 153.277 99.0345 153.688 99.0345 154.199C99.0345 154.48 98.9616 154.751 98.8262 155.011C98.6855 155.261 98.4928 155.48 98.2428 155.657C98.0033 155.839 97.722 155.985 97.3887 156.095C97.0553 156.188 96.7012 156.241 96.3262 156.241C95.7689 156.241 95.248 156.147 94.7637 155.97C94.2741 155.793 93.8574 155.532 93.5137 155.199Z" fill="#ECEFF4"/>
<path d="M100.624 148.157C100.442 148.157 100.28 148.095 100.145 147.97C100.02 147.834 99.9573 147.673 99.9573 147.491C99.9573 147.298 100.02 147.136 100.145 147.011C100.28 146.886 100.442 146.824 100.624 146.824C100.801 146.824 100.957 146.886 101.082 147.011C101.218 147.136 101.291 147.298 101.291 147.491C101.291 147.673 101.218 147.834 101.082 147.97C100.957 148.095 100.801 148.157 100.624 148.157ZM101.124 149.428V156.116H100.124V149.428H101.124Z" fill="#ECEFF4"/>
<path d="M102.789 156.116V149.428H103.789V150.178C104.039 149.886 104.321 149.673 104.643 149.532C104.977 149.381 105.341 149.303 105.748 149.303C106.206 149.303 106.612 149.418 106.977 149.636C107.352 149.845 107.643 150.136 107.852 150.511C108.128 150.11 108.456 149.813 108.831 149.616C109.216 149.407 109.654 149.303 110.143 149.303C110.862 149.303 111.456 149.548 111.914 150.032C112.373 150.506 112.602 151.126 112.602 151.886V156.116H111.623V152.095C111.623 151.501 111.461 151.032 111.143 150.699C110.836 150.355 110.419 150.178 109.893 150.178C109.529 150.178 109.196 150.272 108.893 150.449C108.586 150.631 108.331 150.902 108.123 151.261C108.133 151.36 108.149 151.464 108.164 151.574C108.175 151.673 108.185 151.777 108.185 151.886V156.116H107.206V152.095C107.206 151.501 107.044 151.032 106.727 150.699C106.419 150.355 106.008 150.178 105.498 150.178C105.133 150.178 104.81 150.261 104.518 150.428C104.227 150.584 103.982 150.819 103.789 151.136V156.116H102.789Z" fill="#ECEFF4"/>
<path d="M114.237 158.845V149.428H115.216V150.157C115.508 149.881 115.83 149.673 116.195 149.532C116.57 149.397 116.966 149.324 117.383 149.324C117.851 149.324 118.289 149.418 118.695 149.595C119.112 149.777 119.466 150.022 119.758 150.324C120.06 150.631 120.299 151.001 120.466 151.428C120.643 151.845 120.737 152.293 120.737 152.761C120.737 153.251 120.643 153.709 120.466 154.136C120.299 154.553 120.06 154.923 119.758 155.241C119.466 155.548 119.112 155.793 118.695 155.97C118.278 156.136 117.83 156.22 117.362 156.22C116.971 156.22 116.591 156.157 116.216 156.032C115.851 155.897 115.528 155.699 115.237 155.449V158.845H114.237ZM117.278 150.199C116.862 150.199 116.471 150.282 116.112 150.449C115.747 150.616 115.455 150.845 115.237 151.136V154.428C115.455 154.72 115.747 154.949 116.112 155.116C116.487 155.282 116.872 155.366 117.278 155.366C117.987 155.366 118.575 155.116 119.049 154.616C119.518 154.116 119.758 153.506 119.758 152.782C119.758 152.423 119.695 152.084 119.57 151.761C119.445 151.444 119.268 151.173 119.049 150.949C118.825 150.714 118.56 150.532 118.258 150.407C117.95 150.272 117.622 150.199 117.278 150.199Z" fill="#ECEFF4"/>
<path d="M123.099 146.553V156.116H122.099V146.782L123.099 146.553Z" fill="#ECEFF4"/>
<path d="M130.39 155.407C130.025 155.688 129.64 155.897 129.223 156.032C128.817 156.168 128.379 156.241 127.91 156.241C127.421 156.241 126.963 156.147 126.535 155.97C126.119 155.793 125.754 155.548 125.452 155.241C125.145 154.923 124.9 154.553 124.723 154.136C124.556 153.72 124.473 153.261 124.473 152.761C124.473 152.293 124.556 151.845 124.723 151.428C124.9 151.011 125.14 150.652 125.431 150.345C125.723 150.027 126.067 149.777 126.473 149.595C126.874 149.418 127.306 149.324 127.765 149.324C128.207 149.324 128.619 149.418 128.994 149.595C129.379 149.777 129.713 150.027 129.994 150.345C130.285 150.652 130.504 151.011 130.66 151.428C130.827 151.845 130.91 152.293 130.91 152.761V153.074H125.431C125.499 153.73 125.77 154.277 126.244 154.72C126.713 155.152 127.285 155.366 127.952 155.366C128.296 155.366 128.629 155.319 128.952 155.22C129.285 155.11 129.562 154.959 129.785 154.761L130.39 155.407ZM127.723 150.199C127.15 150.199 126.65 150.397 126.223 150.782C125.806 151.173 125.556 151.673 125.473 152.282H129.931C129.848 151.699 129.598 151.209 129.181 150.803C128.765 150.402 128.275 150.199 127.723 150.199Z" fill="#ECEFF4"/>
<path d="M131.614 155.199L132.197 154.553C132.5 154.845 132.843 155.069 133.218 155.22C133.604 155.376 133.994 155.449 134.385 155.449C134.911 155.449 135.343 155.339 135.677 155.116C136.02 154.897 136.197 154.605 136.197 154.241C136.197 153.964 136.093 153.741 135.885 153.574C135.687 153.407 135.375 153.298 134.947 153.241L133.802 153.074C133.135 152.98 132.635 152.782 132.302 152.491C131.979 152.188 131.822 151.782 131.822 151.282C131.822 150.714 132.057 150.251 132.531 149.886C133 149.511 133.599 149.324 134.322 149.324C134.807 149.324 135.265 149.402 135.697 149.553C136.125 149.694 136.541 149.907 136.947 150.199L136.427 150.866C136.052 150.631 135.687 150.449 135.343 150.324C134.994 150.199 134.64 150.136 134.281 150.136C133.822 150.136 133.447 150.241 133.156 150.449C132.864 150.647 132.718 150.907 132.718 151.241C132.718 151.522 132.812 151.741 133.01 151.907C133.218 152.063 133.536 152.168 133.968 152.22L135.135 152.386C135.802 152.47 136.302 152.668 136.635 152.97C136.968 153.277 137.135 153.688 137.135 154.199C137.135 154.48 137.062 154.751 136.927 155.011C136.786 155.261 136.593 155.48 136.343 155.657C136.104 155.839 135.822 155.985 135.489 156.095C135.156 156.188 134.802 156.241 134.427 156.241C133.869 156.241 133.349 156.147 132.864 155.97C132.375 155.793 131.958 155.532 131.614 155.199Z" fill="#ECEFF4"/>
<path d="M144.215 155.345C144.574 155.345 144.913 155.277 145.235 155.136C145.569 154.985 145.881 154.777 146.173 154.511L146.777 155.178C146.413 155.511 146.011 155.777 145.569 155.97C145.121 156.147 144.663 156.241 144.194 156.241C143.72 156.241 143.277 156.147 142.86 155.97C142.444 155.793 142.079 155.548 141.777 155.241C141.47 154.923 141.225 154.553 141.048 154.136C140.881 153.709 140.798 153.251 140.798 152.761C140.798 152.293 140.881 151.845 141.048 151.428C141.225 151.001 141.47 150.631 141.777 150.324C142.079 150.006 142.444 149.756 142.86 149.574C143.277 149.397 143.72 149.303 144.194 149.303C144.663 149.303 145.131 149.402 145.59 149.595C146.048 149.777 146.449 150.032 146.798 150.366L146.173 151.074C145.907 150.798 145.6 150.584 145.256 150.428C144.907 150.277 144.553 150.199 144.194 150.199C143.86 150.199 143.538 150.272 143.235 150.407C142.944 150.548 142.683 150.735 142.465 150.97C142.241 151.194 142.069 151.464 141.944 151.782C141.819 152.089 141.756 152.418 141.756 152.761C141.756 153.136 141.819 153.485 141.944 153.803C142.079 154.11 142.256 154.381 142.465 154.616C142.683 154.839 142.949 155.022 143.256 155.157C143.558 155.282 143.881 155.345 144.215 155.345Z" fill="#ECEFF4"/>
<path d="M148.926 146.553V156.116H147.926V146.782L148.926 146.553Z" fill="#ECEFF4"/>
<path d="M151.091 148.157C150.909 148.157 150.748 148.095 150.612 147.97C150.487 147.834 150.425 147.673 150.425 147.491C150.425 147.298 150.487 147.136 150.612 147.011C150.748 146.886 150.909 146.824 151.091 146.824C151.269 146.824 151.425 146.886 151.55 147.011C151.685 147.136 151.758 147.298 151.758 147.491C151.758 147.673 151.685 147.834 151.55 147.97C151.425 148.095 151.269 148.157 151.091 148.157ZM151.591 149.428V156.116H150.591V149.428H151.591Z" fill="#ECEFF4"/>
<path d="M156.382 155.345C156.741 155.345 157.08 155.277 157.403 155.136C157.736 154.985 158.048 154.777 158.34 154.511L158.944 155.178C158.58 155.511 158.179 155.777 157.736 155.97C157.288 156.147 156.83 156.241 156.361 156.241C155.887 156.241 155.444 156.147 155.028 155.97C154.611 155.793 154.246 155.548 153.944 155.241C153.637 154.923 153.392 154.553 153.215 154.136C153.048 153.709 152.965 153.251 152.965 152.761C152.965 152.293 153.048 151.845 153.215 151.428C153.392 151.001 153.637 150.631 153.944 150.324C154.246 150.006 154.611 149.756 155.028 149.574C155.444 149.397 155.887 149.303 156.361 149.303C156.83 149.303 157.298 149.402 157.757 149.595C158.215 149.777 158.616 150.032 158.965 150.366L158.34 151.074C158.074 150.798 157.767 150.584 157.423 150.428C157.074 150.277 156.72 150.199 156.361 150.199C156.028 150.199 155.705 150.272 155.403 150.407C155.111 150.548 154.85 150.735 154.632 150.97C154.408 151.194 154.236 151.464 154.111 151.782C153.986 152.089 153.923 152.418 153.923 152.761C153.923 153.136 153.986 153.485 154.111 153.803C154.246 154.11 154.423 154.381 154.632 154.616C154.85 154.839 155.116 155.022 155.423 155.157C155.725 155.282 156.048 155.345 156.382 155.345Z" fill="#ECEFF4"/>
<path d="M160.093 156.116V146.782L161.093 146.553V152.449L164.572 149.428H165.781L162.114 152.616L165.947 156.116H164.614L161.093 152.907V156.116H160.093Z" fill="#ECEFF4"/>
<path d="M166.76 153.532L166.635 146.553H167.677L167.552 153.532H166.76ZM167.156 156.199C166.973 156.199 166.812 156.136 166.677 156.011C166.552 155.876 166.489 155.709 166.489 155.511C166.489 155.334 166.552 155.178 166.677 155.053C166.812 154.918 166.973 154.845 167.156 154.845C167.348 154.845 167.51 154.918 167.635 155.053C167.77 155.178 167.843 155.334 167.843 155.511C167.843 155.709 167.77 155.876 167.635 156.011C167.51 156.136 167.348 156.199 167.156 156.199Z" fill="#ECEFF4"/>
</svg>
