<svg width="35" height="28" viewBox="0 0 35 28" fill="none" xmlns="http://www.w3.org/2000/svg">
<path d="M14.667 20.8579L11.9545 17.5438C11.5827 17.0899 10.9592 16.9368 10.4233 17.1665L4.29829 19.7915C3.71314 20.043 3.39595 20.6719 3.53814 21.2954L4.85064 26.9829C4.98735 27.5735 5.51235 28.0001 6.13032 28.0001C11.6374 28.0001 16.7233 26.2282 20.8795 23.2477L16.5045 19.868C15.9084 20.2235 15.2959 20.5626 14.667 20.8579ZM34.6608 25.0524L25.9819 18.3477C29.4163 14.0219 31.4999 8.58054 31.4999 2.62507C31.4999 2.01257 31.0788 1.4821 30.4827 1.34539L24.7952 0.0328851C24.1772 -0.109302 23.5428 0.213354 23.2913 0.793041L20.6663 6.91804C20.4366 7.45398 20.5897 8.08289 21.0436 8.44929L24.3577 11.1618C23.6905 12.5891 22.8319 13.9126 21.842 15.143L2.48814 0.18601C2.10532 -0.109302 1.55845 -0.0436774 1.25767 0.339135L0.185792 1.71726C-0.109521 2.10007 -0.0438956 2.64695 0.338917 2.94226L32.517 27.8087C32.8999 28.104 33.4467 28.0384 33.7475 27.6555L34.8194 26.2719C35.1147 25.9001 35.0436 25.3477 34.6608 25.0524Z" fill="#ECEFF4"/>
</svg>
