<svg width="16" height="16" viewBox="0 0 16 16" fill="none" xmlns="http://www.w3.org/2000/svg">
<path d="M16 1.00299C16.012 9.53399 9.46 16.009 1.003 16C0.45 16 0 15.552 0 15L0 12.36C0 11.865 0.364 11.444 0.854 11.371C2.02905 11.1969 3.17305 10.8551 4.251 10.356L4.473 10.253C4.62239 10.1838 4.79124 10.1689 4.95043 10.2109C5.10962 10.2529 5.24917 10.3491 5.345 10.483C5.929 11.301 7.104 11.613 8.02 10.976C9.17333 10.174 10.1746 9.17305 10.977 8.01999C11.613 7.10299 11.301 5.92799 10.484 5.34499C10.3497 5.24926 10.2531 5.1096 10.211 4.95018C10.1688 4.79076 10.1836 4.6216 10.253 4.47199L10.355 4.25099C10.855 3.17299 11.197 2.02899 11.371 0.853991C11.444 0.363991 11.865 -9.53674e-06 12.361 -9.53674e-06H15C15.1314 -9.53674e-06 15.2615 0.0258894 15.3829 0.0762062C15.5043 0.126523 15.6146 0.200274 15.7075 0.293238C15.8003 0.386202 15.874 0.496559 15.9242 0.618C15.9744 0.739441 16.0001 0.869584 16 1.00099V1.00299Z" fill="#A3BE8C"/>
</svg>
